<mxfile host="65bd71144e">
    <diagram id="ExdccTZqctQwAvQB16s_" name="Page-1">
        <mxGraphModel dx="1658" dy="1277" grid="1" gridSize="10" guides="1" tooltips="1" connect="1" arrows="1" fold="1" page="0" pageScale="1" pageWidth="827" pageHeight="1169" background="none" math="0" shadow="0">
            <root>
                <mxCell id="0"/>
                <mxCell id="1" parent="0"/>
                <mxCell id="2M91R3iAnrZrVvDSjcHK-1" value="Node A" style="rounded=0;whiteSpace=wrap;html=1;fontSize=14;fontStyle=1" parent="1" vertex="1">
                    <mxGeometry x="40" width="160" height="41" as="geometry"/>
                </mxCell>
                <mxCell id="2M91R3iAnrZrVvDSjcHK-2" value="Node B" style="rounded=0;whiteSpace=wrap;html=1;fontSize=14;fontStyle=1" parent="1" vertex="1">
                    <mxGeometry x="400" y="2" width="160" height="39" as="geometry"/>
                </mxCell>
                <mxCell id="2M91R3iAnrZrVvDSjcHK-28" value="" style="endArrow=none;dashed=1;html=1;fontSize=12;entryX=0.5;entryY=1;entryDx=0;entryDy=0;startArrow=none;" parent="1" target="2M91R3iAnrZrVvDSjcHK-1" edge="1" source="57">
                    <mxGeometry width="50" height="50" relative="1" as="geometry">
                        <mxPoint x="120" y="1850" as="sourcePoint"/>
                        <mxPoint x="570" y="240" as="targetPoint"/>
                    </mxGeometry>
                </mxCell>
                <mxCell id="2M91R3iAnrZrVvDSjcHK-29" value="" style="endArrow=none;dashed=1;html=1;fontSize=12;entryX=0.5;entryY=1;entryDx=0;entryDy=0;" parent="1" target="2M91R3iAnrZrVvDSjcHK-2" edge="1">
                    <mxGeometry width="50" height="50" relative="1" as="geometry">
                        <mxPoint x="480" y="1760" as="sourcePoint"/>
                        <mxPoint x="560" y="181" as="targetPoint"/>
                    </mxGeometry>
                </mxCell>
                <mxCell id="14" value="This green colored sequence is a communication started from Node A." style="shape=note;whiteSpace=wrap;html=1;backgroundOutline=1;darkOpacity=0.05;" parent="1" vertex="1">
                    <mxGeometry x="-265" y="-80" width="285" height="100" as="geometry"/>
                </mxCell>
                <mxCell id="25" value="&lt;span style=&quot;font-size: 12px&quot;&gt;Session Established&lt;br&gt;(Outgoing)&lt;br&gt;&lt;/span&gt;" style="rounded=1;whiteSpace=wrap;html=1;fontSize=14;strokeColor=#58E800;" parent="1" vertex="1">
                    <mxGeometry x="-20" y="440" width="270" height="58" as="geometry"/>
                </mxCell>
                <mxCell id="36" value="" style="endArrow=classic;html=1;fontSize=18;fillColor=#60a917;strokeColor=#58E800;" parent="1" edge="1">
                    <mxGeometry x="-162.62" y="-180" width="50" height="50" as="geometry">
                        <mxPoint x="117.38" y="120" as="sourcePoint"/>
                        <mxPoint x="477.38" y="120" as="targetPoint"/>
                    </mxGeometry>
                </mxCell>
                <mxCell id="37" value="Random packets to start session" style="edgeLabel;html=1;align=center;verticalAlign=middle;resizable=0;points=[];fontSize=14;" parent="36" vertex="1" connectable="0">
                    <mxGeometry relative="1" as="geometry">
                        <mxPoint x="-70" y="-10" as="offset"/>
                    </mxGeometry>
                </mxCell>
                <mxCell id="39" value="" style="endArrow=classic;html=1;fontSize=18;strokeColor=#58E800;" parent="1" edge="1">
                    <mxGeometry x="200" y="-210" width="50" height="50" as="geometry">
                        <mxPoint x="480" y="200" as="sourcePoint"/>
                        <mxPoint x="120" y="200" as="targetPoint"/>
                    </mxGeometry>
                </mxCell>
                <mxCell id="40" value="WHOAREYOU" style="edgeLabel;html=1;align=center;verticalAlign=middle;resizable=0;points=[];fontSize=14;" parent="39" vertex="1" connectable="0">
                    <mxGeometry relative="1" as="geometry">
                        <mxPoint x="120" y="-10" as="offset"/>
                    </mxGeometry>
                </mxCell>
                <mxCell id="41" value="" style="endArrow=classic;html=1;fontSize=18;fillColor=#e3c800;strokeColor=#FFBC21;" parent="1" edge="1">
                    <mxGeometry x="-151.87" y="-210" width="50" height="50" as="geometry">
                        <mxPoint x="478.13" y="160" as="sourcePoint"/>
                        <mxPoint x="118.13" y="160" as="targetPoint"/>
                    </mxGeometry>
                </mxCell>
                <mxCell id="42" value="Random packets to start session" style="edgeLabel;html=1;align=center;verticalAlign=middle;resizable=0;points=[];fontSize=14;" parent="41" vertex="1" connectable="0">
                    <mxGeometry relative="1" as="geometry">
                        <mxPoint x="70" y="-10" as="offset"/>
                    </mxGeometry>
                </mxCell>
                <mxCell id="43" value="" style="endArrow=classic;html=1;fontSize=18;fillColor=#60a917;strokeColor=#58E800;" parent="1" edge="1">
                    <mxGeometry x="-160" y="102" width="50" height="50" as="geometry">
                        <mxPoint x="120" y="402" as="sourcePoint"/>
                        <mxPoint x="480" y="402" as="targetPoint"/>
                    </mxGeometry>
                </mxCell>
                <mxCell id="44" value="Authentication response" style="edgeLabel;html=1;align=center;verticalAlign=middle;resizable=0;points=[];fontSize=14;" parent="43" vertex="1" connectable="0">
                    <mxGeometry relative="1" as="geometry">
                        <mxPoint x="-100" y="-12" as="offset"/>
                    </mxGeometry>
                </mxCell>
                <mxCell id="45" value="&lt;span style=&quot;font-size: 12px&quot;&gt;Decryption failed&lt;br&gt;Message is not encrypted with known sesion keys&lt;br&gt;&lt;/span&gt;" style="rounded=1;whiteSpace=wrap;html=1;fontSize=14;strokeColor=#FFBC21;" parent="1" vertex="1">
                    <mxGeometry x="350" y="670" width="290" height="58" as="geometry"/>
                </mxCell>
                <mxCell id="46" value="" style="endArrow=classic;html=1;fontSize=18;fillColor=#e3c800;strokeColor=#FFBC21;" parent="1" edge="1">
                    <mxGeometry x="-141.75" y="-400" width="50" height="50" as="geometry">
                        <mxPoint x="118.25" y="240" as="sourcePoint"/>
                        <mxPoint x="478.25" y="240" as="targetPoint"/>
                    </mxGeometry>
                </mxCell>
                <mxCell id="47" value="WHOAREYOU" style="edgeLabel;html=1;align=center;verticalAlign=middle;resizable=0;points=[];fontSize=14;" parent="46" vertex="1" connectable="0">
                    <mxGeometry relative="1" as="geometry">
                        <mxPoint x="-130" y="-10" as="offset"/>
                    </mxGeometry>
                </mxCell>
                <mxCell id="48" value="&lt;span style=&quot;font-size: 12px&quot;&gt;Session Established&lt;br&gt;(Incoming)&lt;br&gt;&lt;/span&gt;" style="rounded=1;whiteSpace=wrap;html=1;fontSize=14;strokeColor=#58E800;" parent="1" vertex="1">
                    <mxGeometry x="350" y="470" width="270" height="58" as="geometry"/>
                </mxCell>
                <mxCell id="49" value="" style="endArrow=classic;html=1;fontSize=18;fillColor=#e3c800;strokeColor=#FFBC21;" parent="1" edge="1">
                    <mxGeometry x="-150" y="-90" width="50" height="50" as="geometry">
                        <mxPoint x="480" y="280" as="sourcePoint"/>
                        <mxPoint x="120" y="280" as="targetPoint"/>
                    </mxGeometry>
                </mxCell>
                <mxCell id="50" value="Authentication response" style="edgeLabel;html=1;align=center;verticalAlign=middle;resizable=0;points=[];fontSize=14;" parent="49" vertex="1" connectable="0">
                    <mxGeometry relative="1" as="geometry">
                        <mxPoint x="100" y="-10" as="offset"/>
                    </mxGeometry>
                </mxCell>
                <mxCell id="51" value="&lt;span style=&quot;font-size: 12px&quot;&gt;Session Established&lt;/span&gt;&lt;br style=&quot;font-size: 12px&quot;&gt;&lt;span style=&quot;font-size: 12px&quot;&gt;(Outgoing)&lt;/span&gt;&lt;span style=&quot;font-size: 12px&quot;&gt;&lt;br&gt;&lt;/span&gt;" style="rounded=1;whiteSpace=wrap;html=1;fontSize=14;strokeColor=#FFBC21;" parent="1" vertex="1">
                    <mxGeometry x="335" y="310" width="290" height="58" as="geometry"/>
                </mxCell>
                <mxCell id="52" value="&lt;span style=&quot;font-size: 12px&quot;&gt;Remove session&lt;br&gt;&lt;/span&gt;" style="rounded=1;whiteSpace=wrap;html=1;fontSize=14;strokeColor=#FFBC21;" parent="1" vertex="1">
                    <mxGeometry x="350" y="760" width="290" height="58" as="geometry"/>
                </mxCell>
                <mxCell id="53" value="" style="endArrow=classic;html=1;fontSize=18;strokeColor=#58E800;" parent="1" edge="1">
                    <mxGeometry x="100" y="478.5" width="50" height="50" as="geometry">
                        <mxPoint x="380" y="888.5" as="sourcePoint"/>
                        <mxPoint x="290" y="889" as="targetPoint"/>
                    </mxGeometry>
                </mxCell>
                <mxCell id="54" value="NODES" style="edgeLabel;html=1;align=center;verticalAlign=middle;resizable=0;points=[];fontSize=14;" parent="53" vertex="1" connectable="0">
                    <mxGeometry relative="1" as="geometry">
                        <mxPoint x="5" y="-10" as="offset"/>
                    </mxGeometry>
                </mxCell>
                <mxCell id="55" value="&lt;span style=&quot;font-size: 12px&quot;&gt;Session Established&lt;br&gt;(Incoming)&lt;br&gt;&lt;/span&gt;" style="rounded=1;whiteSpace=wrap;html=1;fontSize=14;strokeColor=#FFBC21;" parent="1" vertex="1">
                    <mxGeometry x="-25" y="530" width="290" height="58" as="geometry"/>
                </mxCell>
                <mxCell id="60" value="This orange colored sequence is a communication started from Node B." style="shape=note;whiteSpace=wrap;html=1;backgroundOutline=1;darkOpacity=0.05;" parent="1" vertex="1">
                    <mxGeometry x="650" y="10" width="285" height="100" as="geometry"/>
                </mxCell>
                <mxCell id="61" value="" style="endArrow=none;dashed=1;html=1;dashPattern=1 3;strokeWidth=2;fontSize=14;fontColor=#F7FF19;entryX=0.5;entryY=1;entryDx=0;entryDy=0;entryPerimeter=0;" parent="1" target="14" edge="1">
                    <mxGeometry width="50" height="50" relative="1" as="geometry">
                        <mxPoint x="110" y="120" as="sourcePoint"/>
                        <mxPoint x="-360" y="420" as="targetPoint"/>
                    </mxGeometry>
                </mxCell>
                <mxCell id="62" value="" style="endArrow=none;dashed=1;html=1;dashPattern=1 3;strokeWidth=2;fontSize=14;fontColor=#F7FF19;exitX=0;exitY=0.5;exitDx=0;exitDy=0;exitPerimeter=0;" parent="1" source="60" edge="1">
                    <mxGeometry width="50" height="50" relative="1" as="geometry">
                        <mxPoint x="120" y="310" as="sourcePoint"/>
                        <mxPoint x="480" y="160" as="targetPoint"/>
                    </mxGeometry>
                </mxCell>
                <mxCell id="63" value="&lt;span style=&quot;font-size: 12px&quot;&gt;Received a WHOAREYOU packet&lt;br&gt;that references an unknown or expired request&lt;br&gt;&lt;/span&gt;" style="rounded=1;whiteSpace=wrap;html=1;fontSize=14;strokeColor=#FFBC21;" parent="1" vertex="1">
                    <mxGeometry x="-10" y="990" width="290" height="58" as="geometry"/>
                </mxCell>
                <mxCell id="31" value="" style="shape=cross;whiteSpace=wrap;html=1;fontSize=12;rotation=45;fillColor=#E31E4C;fontColor=#000000;strokeColor=#B09500;" parent="1" vertex="1">
                    <mxGeometry x="250" y="863" width="50" height="50" as="geometry"/>
                </mxCell>
                <mxCell id="71" value="&lt;span style=&quot;font-size: 12px&quot;&gt;Received an authenticated header&lt;/span&gt;&lt;br style=&quot;font-size: 12px&quot;&gt;&lt;span style=&quot;font-size: 12px&quot;&gt;without a matching WHOAREYOU request&lt;/span&gt;&lt;span style=&quot;font-size: 12px&quot;&gt;&lt;br&gt;&lt;/span&gt;" style="rounded=1;whiteSpace=wrap;html=1;fontSize=14;strokeColor=#58E800;" parent="1" vertex="1">
                    <mxGeometry x="325" y="1361" width="290" height="58" as="geometry"/>
                </mxCell>
                <mxCell id="75" value="Both of these communication, green and orange, resulted in failure that the target node could not found." style="shape=note;whiteSpace=wrap;html=1;backgroundOutline=1;darkOpacity=0.05;fontStyle=1" parent="1" vertex="1">
                    <mxGeometry x="-1.25" y="1790" width="552.5" height="100" as="geometry"/>
                </mxCell>
                <mxCell id="86" value="&lt;span style=&quot;font-size: 12px&quot;&gt;Request timed out&lt;br&gt;&lt;/span&gt;" style="rounded=1;whiteSpace=wrap;html=1;fontSize=14;strokeColor=#FFBC21;" parent="1" vertex="1">
                    <mxGeometry x="320" y="1521" width="290" height="58" as="geometry"/>
                </mxCell>
                <mxCell id="87" value="" style="endArrow=classic;html=1;fontSize=18;fillColor=#e3c800;strokeColor=#FFBC21;" edge="1" parent="1">
                    <mxGeometry x="-142.75" width="50" height="50" as="geometry">
                        <mxPoint x="117.25" y="640" as="sourcePoint"/>
                        <mxPoint x="477.25" y="640" as="targetPoint"/>
                    </mxGeometry>
                </mxCell>
                <mxCell id="88" value="NODES" style="edgeLabel;html=1;align=center;verticalAlign=middle;resizable=0;points=[];fontSize=14;" vertex="1" connectable="0" parent="87">
                    <mxGeometry relative="1" as="geometry">
                        <mxPoint x="-130" y="-10" as="offset"/>
                    </mxGeometry>
                </mxCell>
                <mxCell id="89" value="&lt;span style=&quot;font-size: 12px&quot;&gt;Session is not established&lt;br&gt;Dropping response&lt;br&gt;&lt;/span&gt;" style="rounded=1;whiteSpace=wrap;html=1;fontSize=14;strokeColor=#58E800;" vertex="1" parent="1">
                    <mxGeometry x="380" y="860" width="210" height="58" as="geometry"/>
                </mxCell>
                <mxCell id="94" value="" style="shape=cross;whiteSpace=wrap;html=1;fontSize=12;rotation=45;fillColor=#E31E4C;fontColor=#000000;strokeColor=#B09500;" vertex="1" parent="1">
                    <mxGeometry x="560" y="650" width="50" height="50" as="geometry"/>
                </mxCell>
                <mxCell id="95" value="" style="endArrow=classic;html=1;fontSize=18;fillColor=#e3c800;strokeColor=#FFBC21;" edge="1" parent="1">
                    <mxGeometry x="-150" y="590" width="50" height="50" as="geometry">
                        <mxPoint x="480" y="960" as="sourcePoint"/>
                        <mxPoint x="120" y="960" as="targetPoint"/>
                    </mxGeometry>
                </mxCell>
                <mxCell id="96" value="WHOAREYOU" style="edgeLabel;html=1;align=center;verticalAlign=middle;resizable=0;points=[];fontSize=14;" vertex="1" connectable="0" parent="95">
                    <mxGeometry relative="1" as="geometry">
                        <mxPoint x="100" y="-10" as="offset"/>
                    </mxGeometry>
                </mxCell>
                <mxCell id="97" value="&lt;span style=&quot;font-size: 12px&quot;&gt;Retry: resend the request&lt;br&gt;&lt;/span&gt;" style="rounded=1;whiteSpace=wrap;html=1;fontSize=14;strokeColor=#FFBC21;" vertex="1" parent="1">
                    <mxGeometry x="400" y="1171" width="170" height="58" as="geometry"/>
                </mxCell>
                <mxCell id="98" value="" style="endArrow=classic;html=1;fontSize=18;fillColor=#e3c800;strokeColor=#FFBC21;" edge="1" parent="1">
                    <mxGeometry x="-230" y="829.5" width="50" height="50" as="geometry">
                        <mxPoint x="400" y="1199.5" as="sourcePoint"/>
                        <mxPoint x="120" y="1200" as="targetPoint"/>
                    </mxGeometry>
                </mxCell>
                <mxCell id="99" value="Authentication response" style="edgeLabel;html=1;align=center;verticalAlign=middle;resizable=0;points=[];fontSize=14;" vertex="1" connectable="0" parent="98">
                    <mxGeometry relative="1" as="geometry">
                        <mxPoint x="50" y="-10" as="offset"/>
                    </mxGeometry>
                </mxCell>
                <mxCell id="57" value="&lt;span style=&quot;font-size: 12px&quot;&gt;Retry: resend the request&lt;/span&gt;&lt;span style=&quot;font-size: 12px&quot;&gt;&lt;br&gt;&lt;/span&gt;" style="rounded=1;whiteSpace=wrap;html=1;fontSize=14;strokeColor=#58E800;" parent="1" vertex="1">
                    <mxGeometry x="25" y="1251" width="190" height="58" as="geometry"/>
                </mxCell>
                <mxCell id="100" value="" style="endArrow=none;dashed=1;html=1;fontSize=12;entryX=0.5;entryY=1;entryDx=0;entryDy=0;" edge="1" parent="1" target="57">
                    <mxGeometry width="50" height="50" relative="1" as="geometry">
                        <mxPoint x="120" y="1760" as="sourcePoint"/>
                        <mxPoint x="120" y="41" as="targetPoint"/>
                    </mxGeometry>
                </mxCell>
                <mxCell id="101" value="" style="endArrow=classic;html=1;fontSize=18;fillColor=#60a917;strokeColor=#58E800;" edge="1" parent="1">
                    <mxGeometry x="-65" y="981" width="50" height="50" as="geometry">
                        <mxPoint x="215" y="1281" as="sourcePoint"/>
                        <mxPoint x="480" y="1281" as="targetPoint"/>
                    </mxGeometry>
                </mxCell>
                <mxCell id="102" value="Authentication response" style="edgeLabel;html=1;align=center;verticalAlign=middle;resizable=0;points=[];fontSize=14;" vertex="1" connectable="0" parent="101">
                    <mxGeometry relative="1" as="geometry">
                        <mxPoint x="-48" y="-12" as="offset"/>
                    </mxGeometry>
                </mxCell>
                <mxCell id="68" value="&lt;span style=&quot;font-size: 12px&quot;&gt;Received an authenticated header&lt;br&gt;without a matching WHOAREYOU request&lt;br&gt;&lt;/span&gt;" style="rounded=1;whiteSpace=wrap;html=1;fontSize=14;strokeColor=#FFBC21;" parent="1" vertex="1">
                    <mxGeometry x="-25" y="1361" width="290" height="58" as="geometry"/>
                </mxCell>
                <mxCell id="103" value="&lt;span style=&quot;font-size: 12px&quot;&gt;Set Node A disconnected&lt;/span&gt;&lt;span style=&quot;font-size: 12px&quot;&gt;&lt;br&gt;&lt;/span&gt;" style="rounded=1;whiteSpace=wrap;html=1;fontSize=14;strokeColor=#FFBC21;" vertex="1" parent="1">
                    <mxGeometry x="320" y="1611" width="290" height="58" as="geometry"/>
                </mxCell>
                <mxCell id="72" value="&lt;span style=&quot;font-size: 12px&quot;&gt;Request timed out&lt;br&gt;&lt;/span&gt;" style="rounded=1;whiteSpace=wrap;html=1;fontSize=14;strokeColor=#58E800;" parent="1" vertex="1">
                    <mxGeometry x="-20" y="1521" width="290" height="58" as="geometry"/>
                </mxCell>
                <mxCell id="74" value="&lt;span style=&quot;font-size: 12px&quot;&gt;Set Node B disconnected&lt;br&gt;&lt;/span&gt;" style="rounded=1;whiteSpace=wrap;html=1;fontSize=14;strokeColor=#58E800;" parent="1" vertex="1">
                    <mxGeometry x="-20" y="1611" width="290" height="58" as="geometry"/>
                </mxCell>
            </root>
        </mxGraphModel>
    </diagram>
</mxfile>